<?xml version="1.0" encoding="UTF-8" standalone="no"?>
<svg
   xmlns:dc="http://purl.org/dc/elements/1.1/"
   xmlns:cc="http://creativecommons.org/ns#"
   xmlns:rdf="http://www.w3.org/1999/02/22-rdf-syntax-ns#"
   xmlns:svg="http://www.w3.org/2000/svg"
   xmlns="http://www.w3.org/2000/svg"
   xmlns:sodipodi="http://sodipodi.sourceforge.net/DTD/sodipodi-0.dtd"
   xmlns:inkscape="http://www.inkscape.org/namespaces/inkscape"
   version="1.1"
   x="0px"
   y="0px"
   viewBox="0 0 70 90"
   enable-background="new 0 0 100 100"
   xml:space="preserve"
   id="svg40"
   sodipodi:docname="PhoneBill.svg"
   width="70"
   height="90"
   inkscape:version="0.92.1 r15371"><metadata
     id="metadata46"><rdf:RDF><cc:Work
         rdf:about=""><dc:format>image/svg+xml</dc:format><dc:type
           rdf:resource="http://purl.org/dc/dcmitype/StillImage" /><dc:title></dc:title></cc:Work></rdf:RDF></metadata><defs
     id="defs44" /><sodipodi:namedview
     pagecolor="#ffffff"
     bordercolor="#666666"
     borderopacity="1"
     objecttolerance="10"
     gridtolerance="10"
     guidetolerance="10"
     inkscape:pageopacity="0"
     inkscape:pageshadow="2"
     inkscape:window-width="716"
     inkscape:window-height="480"
     id="namedview42"
     showgrid="false"
     fit-margin-top="0"
     fit-margin-left="0"
     fit-margin-right="0"
     fit-margin-bottom="0"
     inkscape:zoom="1.888"
     inkscape:cx="35"
     inkscape:cy="32.5"
     inkscape:window-x="2456"
     inkscape:window-y="475"
     inkscape:window-maximized="0"
     inkscape:current-layer="svg40" /><g
     id="g20"
     transform="translate(-15,-5)"><rect
       x="71.5"
       y="66.800003"
       width="4"
       height="18.299999"
       id="rect2" /><rect
       x="55.900002"
       y="66.800003"
       width="4"
       height="18.299999"
       id="rect4" /><rect
       x="30.4"
       y="66.800003"
       width="3"
       height="18.299999"
       id="rect6" /><rect
       x="38"
       y="66.800003"
       width="4"
       height="18.299999"
       id="rect8" /><rect
       x="46.099998"
       y="66.800003"
       width="6"
       height="18.299999"
       id="rect10" /><rect
       x="62"
       y="66.800003"
       width="6"
       height="18.299999"
       id="rect12" /><rect
       x="24.6"
       y="66.800003"
       width="2"
       height="18.299999"
       id="rect14" /><g
       id="g18"><path
         d="M 85,5 V 95 H 15 V 5 H 85 M 20,10 V 90 H 80 V 10 Z"
         id="path16"
         inkscape:connector-curvature="0" /></g></g><g
     display="none"
     id="g24"
     style="display:none"
     transform="translate(-15,-5)"><path
       display="inline"
       d="m 50.4,25 c -1.7,0 -10,14.4 -10,19.9 0,5.6 4.5,10.1 10,10.1 5.5,0 10,-4.5 10,-10.1 0,-5.5 -8.3,-19.9 -10,-19.9 z m -8.1,17.7 c 0,0 0.2,-0.8 1.2,-0.7 0.9,0.1 0.8,1 0.8,1 0,0 -0.1,0.9 0,1.3 0,0 -0.1,0.6 -1,0.6 -1,0 -1,-0.7 -1,-0.7 -0.1,-0.5 0,-1 0,-1.5 z m 8,10.9 c -2.3,-0.2 -4.6,-1.3 -6.2,-3.3 -0.9,-1.2 -1.5,-2.5 -1.8,-3.9 0,0 0,-0.8 1,-0.8 0.9,0 1,0.7 1,0.7 0.2,1 0.7,1.9 1.3,2.7 1.2,1.5 2.9,2.4 4.7,2.6 0,0 0.8,0.1 0.8,0.9 0.1,1.1 -0.8,1.1 -0.8,1.1 z"
       id="path22"
       inkscape:connector-curvature="0"
       style="display:inline" /></g><g
     display="none"
     id="g28"
     style="display:none"
     transform="translate(-15,-5)"><polygon
       display="inline"
       points="59.8,25 40,41 48.9,41 40.2,55 60,39 51.1,39 "
       id="polygon26"
       style="display:inline" /></g><g
     id="g34"
     transform="translate(-15,-5)"><g
       id="g32"><path
         d="m 65,49.1 c 0.1,0.5 0,0.9 -0.4,1.3 l -4.2,4.4 c -0.4,0.5 -1,0.8 -1.7,0.9 h -0.6 c -4.6,0 -9.6,-2.8 -15,-8.5 C 37.7,41.5 35,36.1 35,30.9 c 0.1,-0.7 0.4,-1.3 0.8,-1.7 l 4.3,-4.4 c 0.3,-0.3 0.6,-0.4 1,-0.4 0.6,0 1,0.3 1.3,0.9 l 3.4,6.6 c 0.4,0.8 0.3,1.6 -0.4,2.3 l -1.5,1.7 c -0.1,0.1 -0.2,0.3 -0.2,0.4 0.1,1.5 1.4,3.5 3.9,6.2 1.1,1.2 2.2,2.1 3.2,2.8 1,0.7 1.7,1.1 2.2,1.2 l 0.7,0.2 c 0.1,0 0.2,-0.1 0.3,-0.3 l 1.8,-1.8 c 0.4,-0.4 0.8,-0.6 1.3,-0.6 0.3,0 0.6,0.1 0.8,0.3 H 58 l 6.1,3.8 c 0.5,0.1 0.8,0.5 0.9,1 z"
         id="path30"
         inkscape:connector-curvature="0" /></g></g></svg>